:SAMPLES-PER-SECOND 30
:FULLY-SPECIFIED
:DEGREES
421
root  -10.3124 34.5949 0.787318 -173.497 -0.735367 179.912
RightUpLeg  -4.6833 -9.38548 -1.01612
RightLeg  6.4303 -2.47494 -0.117405
RightFoot  3.10159 0.00329594 0.041221
RightToes  -24.5003 -0.110013 -0.212541
Spine  -2.54755 0.517325 0.578603
Spine1  -5.19231 1.28135 1.74332
HEad  -60.3229 7.40099 1.21888
LeftShoulder1  -1.94126e-019 -3.10601e-018 -2.51263e-017
LeftArm  -17.0235 22.8989 -82.3485
LeftForeArm  33.8426 -12.4616 -2.15506
LeftHand  -0.392764 -0.753877 7.54155
RightShoulder  -4.96962e-017 0 -2.36833e-017
RightArm  -7.14334 -20.0132 76.2049
RightForeArm  53.8508 18.2377 1.31881
RightHand  -0.490345 -0.343719 -11.295
LeftUpLeg  -4.42147 0.278654 2.25661
LeftLeg  5.58354 13.5248 0.444136
LeftFoot  4.93105 -0.0431724 1.33281
LeftToes  -22.7647 2.14545e-006 -7.7278e-009
422
root  -10.3289 34.6049 0.853592 -173.445 -0.869522 179.854
RightUpLeg  -4.80239 -9.66362 -1.06465
RightLeg  6.37713 -2.40251 -0.111712
RightFoot  3.18802 0.00318577 0.0404945
RightToes  -24.718 -0.109854 -0.213051
Spine  -2.43958 0.492696 0.574594
Spine1  -4.97363 1.22695 1.73603
HEad  -60.7576 7.80716 1.2306
LeftShoulder1  -1.94126e-019 -3.10601e-018 -2.51263e-017
LeftArm  -16.9669 22.9409 -82.9629
LeftForeArm  32.9769 -13.5611 -2.3311
LeftHand  -0.38642 -0.611558 7.58493
RightShoulder  -4.96962e-017 0 -2.36833e-017
RightArm  -6.25114 -20.256 76.1851
RightForeArm  53.6393 18.7197 1.41366
RightHand  -0.482176 -0.384056 -11.1928
LeftUpLeg  -4.87401 -0.0448639 2.17467
LeftLeg  6.14196 13.6729 0.581019
LeftFoot  4.84483 -0.0443738 1.32618
LeftToes  -22.569 2.14545e-006 -7.7278e-009
423
root  -10.3539 34.6311 0.990642 -172.747 -1.60597 179.779
RightUpLeg  -5.54117 -9.97684 -0.969918
RightLeg  6.19465 -2.93861 -0.127468
RightFoot  3.32234 0.00550552 0.00533758
RightToes  -24.7214 -0.109702 -0.213657
Spine  -2.58146 0.408456 0.548462
Spine1  -5.24793 1.04571 1.70373
HEad  -61.3314 8.78237 1.41575
LeftShoulder1  -1.94126e-019 -3.10601e-018 -2.51263e-017
LeftArm  -15.8962 23.3658 -83.3481
LeftForeArm  31.4729 -15.6749 -2.64758
LeftHand  -0.382785 -0.51464 7.62925
RightShoulder  -4.96962e-017 0 -2.36833e-017
RightArm  -6.00338 -21.1823 75.9926
RightForeArm  50.8862 19.867 1.73191
RightHand  -0.366859 -1.12409 -9.90927
LeftUpLeg  -6.44873 -1.27868 2.10041
LeftLeg  7.25484 14.1406 0.872965
LeftFoot  4.70995 -0.0468476 1.3373
LeftToes  -22.3405 2.14545e-006 -7.7278e-009
424
root  -10.3926 34.6924 1.13486 -172.237 -3.04048 179.718
RightUpLeg  -5.69617 -11.1126 -0.884388
RightLeg  5.38002 -3.31215 -0.0966946
RightFoot  3.79531 0.00886317 -0.0443653
RightToes  -25.062 -0.109558 -0.214708
Spine  -2.61577 0.347814 0.516707
Spine1  -5.28948 0.863095 1.69993
HEad  -62.5581 10.4102 2.02051
LeftShoulder1  -1.94126e-019 -3.10601e-018 -2.51263e-017
LeftArm  -14.5767 23.4057 -83.714
LeftForeArm  30.3494 -18.0217 -2.97152
LeftHand  -0.380452 -0.686392 7.38351
RightShoulder  -4.96962e-017 0 -2.36833e-017
RightArm  -4.09235 -23.0073 74.9089
RightForeArm  45.6477 23.7634 2.69488
RightHand  -0.252635 -2.04801 -8.52843
LeftUpLeg  -7.8467 -2.62564 2.11098
LeftLeg  8.10334 14.0203 1.07208
LeftFoot  4.8901 -0.0513064 1.3772
LeftToes  -22.2008 2.14545e-006 -7.7278e-009
425
root  -10.4524 34.7154 1.27202 -171.86 -4.95695 179.569
RightUpLeg  -6.00872 -12.8794 -0.939815
RightLeg  5.35104 -3.48989 -0.100157
RightFoot  3.80765 0.00961474 -0.0565462
RightToes  -25.4667 -0.109422 -0.216302
Spine  -2.539 0.475694 0.408181
Spine1  -5.12254 1.09627 1.49147
HEad  -64.4144 12.901 3.43299
LeftShoulder1  -1.94126e-019 -3.10601e-018 -2.51263e-017
LeftArm  -13.1973 23.1521 -83.91
LeftForeArm  29.3311 -21.1477 -3.44101
LeftHand  -0.363659 -0.604081 7.15126
RightShoulder  -4.96962e-017 0 -2.36833e-017
RightArm  3.73829 -25.6178 71.7208
RightForeArm  44.9434 34.3589 5.03977
RightHand  -0.32137 -1.3189 -9.05712
LeftUpLeg  -9.24722 -4.12253 2.04673
LeftLeg  9.12627 13.5995 1.28256
LeftFoot  4.8946 -0.0511922 1.34391
LeftToes  -21.9735 2.14545e-006 -7.7278e-009
426
root  -10.5259 34.7327 1.36899 -171.512 -7.24519 179.422
RightUpLeg  -6.18948 -15.2359 -1.01755
RightLeg  5.37726 -3.37715 -0.0984435
RightFoot  3.74412 0.00864496 -0.0438536
RightToes  -25.775 -0.109298 -0.21807
Spine  -2.49914 0.613329 0.290661
Spine1  -5.0327 1.37142 1.26158
HEad  -65.8075 16.3131 5.39863
LeftShoulder1  -1.94126e-019 -3.10601e-018 -2.51263e-017
LeftArm  -11.8832 22.9172 -84.1142
LeftForeArm  28.3497 -23.9961 -3.88658
LeftHand  -0.362364 -0.370585 7.39393
RightShoulder  -4.96962e-017 0 -2.36833e-017
RightArm  17.5074 -25.8551 65.2374
RightForeArm  47.712 49.036 9.31806
RightHand  -0.437538 0.375997 -8.88496
LeftUpLeg  -10.2168 -5.4885 2.00951
LeftLeg  9.37696 12.6869 1.25343
LeftFoot  5.11232 -0.0514886 1.31486
LeftToes  -22.0391 2.14545e-006 -7.7278e-009
427
root  -10.6057 34.7605 1.45448 -171.305 -9.42856 179.261
RightUpLeg  -6.0677 -16.8863 -1.16229
RightLeg  5.14484 -3.81062 -0.0957246
RightFoot  3.84872 0.0108834 -0.0767396
RightToes  -26.1389 -0.109187 -0.219642
Spine  -2.58327 0.743157 0.220631
Spine1  -5.1812 1.61387 1.1452
HEad  -66.0517 20.0362 7.55502
LeftShoulder1  -1.94126e-019 -3.10601e-018 -2.51263e-017
LeftArm  -11.0288 22.9733 -84.3915
LeftForeArm  28.1812 -26.0715 -4.22158
LeftHand  -0.355515 -0.227981 7.42644
RightShoulder  -4.96962e-017 0 -2.36833e-017
RightArm  27.612 -22.3557 57.734
RightForeArm  56.7285 65.6095 18.8198
RightHand  -0.654671 3.49177 -8.79298
LeftUpLeg  -10.5739 -6.82548 1.93891
LeftLeg  8.77748 11.8668 1.04929
LeftFoot  5.60331 -0.0578622 1.34389
LeftToes  -22.1862 2.14545e-006 -7.7278e-009
428
root  -10.6917 34.7981 1.53094 -171.382 -11.5324 179.051
RightUpLeg  -5.5071 -17.8248 -1.44743
RightLeg  4.70201 -4.89289 -0.0852927
RightFoot  4.04791 0.0172892 -0.16892
RightToes  -25.9082 -0.109089 -0.22065
Spine  -2.73864 0.782573 0.188253
Spine1  -5.45079 1.60342 1.14144
HEad  -64.9303 23.2776 9.94992
LeftShoulder1  -1.94126e-019 -3.10601e-018 -2.51263e-017
LeftArm  -9.6235 23.3561 -84.4829
LeftForeArm  27.8383 -27.6684 -4.50857
LeftHand  -0.338749 -0.110807 7.21811
RightShoulder  -4.96962e-017 0 -2.36833e-017
RightArm  30.5211 -14.9609 51.7762
RightForeArm  88.989 79.2552 51.4698
RightHand  -0.794211 4.56694 -9.524
LeftUpLeg  -10.4469 -8.53694 1.78591
LeftLeg  7.90345 11.4805 0.840617
LeftFoot  6.25609 -0.0694577 1.43248
LeftToes  -22.249 2.14545e-006 -7.7278e-009
429
root  -10.7736 34.8162 1.58247 -171.731 -13.7693 178.763
RightUpLeg  -4.85022 -18.555 -1.89216
RightLeg  4.86318 -6.31762 -0.127866
RightFoot  3.91895 0.0236521 -0.260237
RightToes  -25.6631 -0.109008 -0.220722
Spine  -2.86299 0.892162 0.10555
Spine1  -5.65487 1.70098 1.02865
HEad  -62.8189 25.151 12.9143
LeftShoulder1  -1.94126e-019 -3.10601e-018 -2.51263e-017
LeftArm  -7.02781 23.5447 -84.12
LeftForeArm  28.0173 -28.8693 -4.74641
LeftHand  -0.332664 -0.212766 6.9693
RightShoulder  -4.96962e-017 0 -2.36833e-017
RightArm  24.4086 -4.89845 48.5062
RightForeArm  152.008 80.6211 115.388
RightHand  -0.941848 4.37578 -11.4396
LeftUpLeg  -10.1952 -10.2084 1.51766
LeftLeg  7.44237 10.9039 0.71131
LeftFoot  6.77693 -0.0766765 1.45651
LeftToes  -22.3751 2.14545e-006 -7.7278e-009
430
root  -10.8611 34.8154 1.61935 -172.304 -16.2431 178.429
RightUpLeg  -4.13529 -19.6029 -2.50018
RightLeg  5.63384 -7.57377 -0.254738
RightFoot  3.4534 0.0258355 -0.291571
RightToes  -25.3666 -0.108943 -0.218509
Spine  -2.8644 1.1754 0.000282098
Spine1  -5.61198 2.13217 0.861615
HEad  -60.7432 25.4167 16.0064
LeftShoulder1  -1.94126e-019 -3.10601e-018 -2.51263e-017
LeftArm  -3.50029 23.0298 -83.5393
LeftForeArm  28.8498 -29.5177 -4.87179
LeftHand  -0.322643 -0.489736 6.46666
RightShoulder  -4.96962e-017 0 -2.36833e-017
RightArm  10.6504 5.38888 47.1215
RightForeArm  172.216 78.4027 133.893
RightHand  -1.03715 3.65347 -13.5147
LeftUpLeg  -9.84624 -11.3717 1.12961
LeftLeg  7.3169 9.58106 0.604805
LeftFoot  7.12832 -0.0734715 1.34107
LeftToes  -22.6975 2.14545e-006 -7.7278e-009
431
root  -10.9473 34.7978 1.63537 -172.935 -19.1604 178.071
RightUpLeg  -3.38249 -20.8953 -3.18377
RightLeg  6.80979 -9.01803 -0.487501
RightFoot  2.77985 0.0240865 -0.268374
RightToes  -25.1059 -0.108897 -0.215913
Spine  -2.92027 1.72033 -0.15675
Spine1  -5.70603 3.17767 0.532158
HEad  -59.4636 24.2875 18.5356
LeftShoulder1  -1.94126e-019 -3.10601e-018 -2.51263e-017
LeftArm  -0.119246 22.4822 -82.8609
LeftForeArm  30.2031 -29.8471 -4.9049
LeftHand  -0.298877 -0.585431 5.90756
RightShoulder  -4.96962e-017 0 -2.36833e-017
RightArm  -6.75486 14.5096 47.3808
RightForeArm  165.258 80.186 122.821
RightHand  -1.04046 1.54444 -17.4868
LeftUpLeg  -9.4801 -12.4232 0.720197
LeftLeg  7.31563 7.71687 0.48756
LeftFoot  7.45063 -0.0639005 1.14292
LeftToes  -23.6283 2.14545e-006 -7.7278e-009
432
root  -11.0243 34.7766 1.64002 -173.336 -22.5065 177.665
RightUpLeg  -2.67082 -22.4294 -3.83586
RightLeg  7.93415 -10.6783 -0.785294
RightFoot  2.03673 0.0189513 -0.197588
RightToes  -24.6505 -0.108872 -0.213264
Spine  -2.88623 2.29815 -0.381341
Spine1  -5.64103 4.34961 0.0461054
HEad  -59.438 22.7545 20.2142
LeftShoulder1  -1.94126e-019 -3.10601e-018 -2.51263e-017
LeftArm  2.13576 21.8149 -82.0697
LeftForeArm  31.3408 -30.2257 -4.94624
LeftHand  -0.287656 -0.728786 5.56784
RightShoulder  -4.96962e-017 0 -2.36833e-017
RightArm  -24.8507 23.7305 49.2157
RightForeArm  127.012 81.6673 84.9707
RightHand  -0.79471 -1.32827 -22.5228
LeftUpLeg  -9.30788 -13.7789 0.345465
LeftLeg  7.27468 5.7338 0.358394
LeftFoot  7.84031 -0.0517952 0.922455
LeftToes  -24.819 2.14545e-006 -7.7278e-009
